<svg xmlns="http://www.w3.org/2000/svg" viewBox="0 0 316.67 40.84" role="img" aria-label="Email address">
  <path fill="#0d3c49" d="M19.49,18.47 L19.49,30.35 L16.26,30.35 L16.26,18.58 Q16.26,15.78 15.17,14.40 Q14.08,13.01 11.90,13.01 Q9.28,13.01 7.76,14.68 Q6.25,16.34 6.25,19.23 L6.25,30.35 L3.00,30.35 L3.00,3.00 L6.25,3.00 L6.25,13.73 Q7.42,11.95 8.98,11.07 Q10.56,10.19 12.62,10.19 Q16.01,10.19 17.75,12.29 Q19.49,14.39 19.49,18.47 Z M25.94,10.67 L29.17,10.67 L29.17,30.35 L25.94,30.35 L25.94,10.67 Z M25.94,3.00 L29.17,3.00 L29.17,7.10 L25.94,7.10 L25.94,3.00 Z M45.94,20.92 Q45.94,23.43 47.19,24.86 Q48.44,26.29 50.62,26.29 Q52.78,26.29 54.02,24.85 Q55.26,23.41 55.26,20.92 Q55.26,18.45 54.00,17.01 Q52.73,15.55 50.58,15.55 Q48.46,15.55 47.20,16.99 Q45.94,18.43 45.94,20.92 Z M55.52,26.17 Q54.47,27.52 53.11,28.17 Q51.75,28.81 49.94,28.81 Q46.91,28.81 45.02,26.62 Q43.13,24.43 43.13,20.92 Q43.13,17.40 45.03,15.21 Q46.93,13.01 49.94,13.01 Q51.75,13.01 53.12,13.66 Q54.49,14.32 55.52,15.66 L55.52,13.36 L58.04,13.36 L58.04,26.29 Q60.61,25.90 62.05,23.95 Q63.50,21.98 63.50,18.87 Q63.50,16.99 62.95,15.34 Q62.40,13.69 61.27,12.28 Q59.44,9.98 56.82,8.76 Q54.19,7.54 51.10,7.54 Q48.94,7.54 46.94,8.11 Q44.96,8.68 43.27,9.81 Q40.52,11.60 38.96,14.51 Q37.40,17.42 37.40,20.81 Q37.40,23.60 38.41,26.05 Q39.42,28.49 41.34,30.35 Q43.19,32.18 45.61,33.14 Q48.04,34.10 50.80,34.10 Q53.06,34.10 55.25,33.34 Q57.44,32.57 59.27,31.15 L60.85,33.10 Q58.66,34.80 56.06,35.71 Q53.47,36.61 50.80,36.61 Q47.55,36.61 44.66,35.46 Q41.78,34.31 39.53,32.11 Q37.28,29.92 36.10,27.02 Q34.92,24.13 34.92,20.81 Q34.92,17.61 36.12,14.71 Q37.31,11.81 39.53,9.61 Q41.80,7.38 44.77,6.19 Q47.74,5.01 51.06,5.01 Q54.79,5.01 57.98,6.54 Q61.17,8.06 63.33,10.87 Q64.65,12.60 65.34,14.62 Q66.04,16.64 66.04,18.81 Q66.04,23.43 63.24,26.10 Q60.44,28.77 55.52,28.87 L55.52,26.17 Z M80.13,32.18 Q78.77,35.70 77.46,36.77 Q76.16,37.84 73.98,37.84 L71.40,37.84 L71.40,35.14 L73.30,35.14 Q74.63,35.14 75.37,34.50 Q76.11,33.87 77.00,31.51 L77.58,30.04 L69.62,10.67 L73.05,10.67 L79.20,26.06 L85.36,10.67 L88.78,10.67 L80.13,32.18 Z M102.20,20.46 Q98.28,20.46 96.76,21.35 Q95.25,22.25 95.25,24.41 Q95.25,26.14 96.39,27.15 Q97.52,28.15 99.47,28.15 Q102.16,28.15 103.79,26.25 Q105.41,24.34 105.41,21.18 L105.41,20.46 L102.20,20.46 Z M108.65,19.12 L108.65,30.35 L105.41,30.35 L105.41,27.37 Q104.31,29.16 102.65,30.01 Q101.00,30.87 98.61,30.87 Q95.59,30.87 93.80,29.17 Q92.01,27.47 92.01,24.62 Q92.01,21.30 94.24,19.62 Q96.46,17.93 100.87,17.93 L105.41,17.93 L105.41,17.61 Q105.41,15.37 103.95,14.15 Q102.48,12.93 99.82,12.93 Q98.13,12.93 96.53,13.34 Q94.93,13.74 93.46,14.55 L93.46,11.56 Q95.23,10.87 96.90,10.54 Q98.57,10.19 100.15,10.19 Q104.43,10.19 106.54,12.41 Q108.65,14.62 108.65,19.12 Z M118.51,5.08 L118.51,10.67 L125.17,10.67 L125.17,13.18 L118.51,13.18 L118.51,23.87 Q118.51,26.28 119.17,26.96 Q119.82,27.65 121.85,27.65 L125.17,27.65 L125.17,30.35 L121.85,30.35 Q118.10,30.35 116.68,28.96 Q115.26,27.56 115.26,23.87 L115.26,13.18 L112.88,13.18 L112.88,10.67 L115.26,10.67 L115.26,5.08 L118.51,5.08 Z M141.97,11.25 L141.97,14.31 Q140.61,13.60 139.13,13.25 Q137.65,12.90 136.07,12.90 Q133.66,12.90 132.45,13.64 Q131.25,14.37 131.25,15.85 Q131.25,16.98 132.11,17.62 Q132.97,18.26 135.58,18.84 L136.68,19.09 Q140.13,19.82 141.58,21.17 Q143.03,22.51 143.03,24.92 Q143.03,27.67 140.86,29.27 Q138.69,30.87 134.89,30.87 Q133.31,30.87 131.59,30.56 Q129.88,30.25 127.98,29.63 L127.98,26.29 Q129.78,27.23 131.52,27.69 Q133.25,28.15 134.96,28.15 Q137.25,28.15 138.47,27.37 Q139.71,26.59 139.71,25.17 Q139.71,23.85 138.82,23.15 Q137.93,22.45 134.92,21.79 L133.80,21.53 Q130.80,20.90 129.46,19.59 Q128.12,18.28 128.12,15.99 Q128.12,13.21 130.09,11.71 Q132.06,10.19 135.68,10.19 Q137.47,10.19 139.05,10.46 Q140.64,10.72 141.97,11.25 Z M147.85,22.59 L147.85,10.67 L151.08,10.67 L151.08,22.46 Q151.08,25.26 152.17,26.66 Q153.26,28.05 155.44,28.05 Q158.06,28.05 159.57,26.38 Q161.10,24.71 161.10,21.83 L161.10,10.67 L164.33,10.67 L164.33,30.35 L161.10,30.35 L161.10,27.33 Q159.92,29.12 158.37,29.99 Q156.81,30.87 154.75,30.87 Q151.36,30.87 149.60,28.76 Q147.85,26.65 147.85,22.59 Z M155.99,10.19 L155.99,10.19 Z M170.87,3.00 L174.12,3.00 L174.12,19.15 L183.77,10.67 L187.90,10.67 L177.46,19.88 L188.35,30.35 L184.13,30.35 L174.12,20.74 L174.12,30.35 L170.87,30.35 L170.87,3.00 Z M200.16,20.46 Q196.24,20.46 194.73,21.35 Q193.22,22.25 193.22,24.41 Q193.22,26.14 194.35,27.15 Q195.49,28.15 197.43,28.15 Q200.13,28.15 201.75,26.25 Q203.38,24.34 203.38,21.18 L203.38,20.46 L200.16,20.46 Z M206.61,19.12 L206.61,30.35 L203.38,30.35 L203.38,27.37 Q202.27,29.16 200.62,30.01 Q198.96,30.87 196.57,30.87 Q193.55,30.87 191.76,29.17 Q189.98,27.47 189.98,24.62 Q189.98,21.30 192.20,19.62 Q194.43,17.93 198.84,17.93 L203.38,17.93 L203.38,17.61 Q203.38,15.37 201.91,14.15 Q200.44,12.93 197.79,12.93 Q196.10,12.93 194.50,13.34 Q192.90,13.74 191.43,14.55 L191.43,11.56 Q193.20,10.87 194.87,10.54 Q196.54,10.19 198.12,10.19 Q202.39,10.19 204.50,12.41 Q206.61,14.62 206.61,19.12 Z M210.96,10.67 L214.38,10.67 L220.53,27.19 L226.69,10.67 L230.11,10.67 L222.73,30.35 L218.34,30.35 L210.96,10.67 Z M232.24,25.89 L235.96,25.89 L235.96,30.35 L232.24,30.35 L232.24,25.89 Z M257.40,11.42 L257.40,14.45 Q256.03,13.69 254.65,13.31 Q253.27,12.93 251.87,12.93 Q248.72,12.93 246.97,14.93 Q245.23,16.92 245.23,20.53 Q245.23,24.13 246.97,26.13 Q248.72,28.12 251.87,28.12 Q253.27,28.12 254.65,27.74 Q256.03,27.37 257.40,26.61 L257.40,29.60 Q256.04,30.23 254.59,30.55 Q253.15,30.87 251.51,30.87 Q247.06,30.87 244.44,28.07 Q241.82,25.27 241.82,20.53 Q241.82,15.71 244.47,12.96 Q247.12,10.19 251.72,10.19 Q253.22,10.19 254.64,10.50 Q256.06,10.81 257.40,11.42 Z M270.65,12.93 Q268.05,12.93 266.54,14.96 Q265.03,16.99 265.03,20.53 Q265.03,24.06 266.53,26.09 Q268.04,28.12 270.65,28.12 Q273.24,28.12 274.75,26.08 Q276.26,24.04 276.26,20.53 Q276.26,17.03 274.75,14.98 Q273.24,12.93 270.65,12.93 Z M270.65,10.19 Q274.87,10.19 277.28,12.94 Q279.69,15.68 279.69,20.53 Q279.69,25.36 277.28,28.12 Q274.87,30.87 270.65,30.87 Q266.42,30.87 264.01,28.12 Q261.62,25.36 261.62,20.53 Q261.62,15.68 264.01,12.94 Q266.42,10.19 270.65,10.19 Z M300.38,14.45 Q301.59,12.26 303.28,11.23 Q304.97,10.19 307.25,10.19 Q310.33,10.19 312.00,12.35 Q313.67,14.50 313.67,18.47 L313.67,30.35 L310.42,30.35 L310.42,18.58 Q310.42,15.75 309.41,14.38 Q308.41,13.01 306.36,13.01 Q303.84,13.01 302.38,14.68 Q300.92,16.34 300.92,19.23 L300.92,30.35 L297.67,30.35 L297.67,18.58 Q297.67,15.73 296.67,14.37 Q295.67,13.01 293.58,13.01 Q291.10,13.01 289.63,14.68 Q288.18,16.36 288.18,19.23 L288.18,30.35 L284.93,30.35 L284.93,10.67 L288.18,10.67 L288.18,13.73 Q289.29,11.92 290.83,11.05 Q292.38,10.19 294.51,10.19 Q296.65,10.19 298.16,11.29 Q299.66,12.37 300.38,14.45 Z"/>
</svg>
